<?xml version="1.0" encoding="UTF-8"?>
<svg id="Layer_1" data-name="Layer 1" xmlns="http://www.w3.org/2000/svg" viewBox="0 0 138 138">
  <defs>
    <style>
      .cls-1 {
        fill: #3c3744;
      }

      .cls-2 {
        fill: #818181;
      }
    </style>
  </defs>
  <circle class="cls-2" cx="69" cy="69" r="69"/>
  <path class="cls-1" d="M55.32,127.67v-60.24h-8.89v-11.28l9.02-1.73c.44-7.43,1.83-13.27,4.18-17.52,2.34-4.25,5.48-7.25,9.42-9.02,3.94-1.77,8.43-2.65,13.47-2.65,1.33,0,2.83,.05,4.51,.13,1.68,.09,3.76,.22,6.24,.4l-1.19,14.33c-2.39-.18-4.4-.29-6.04-.33-1.64-.04-3.16-.07-4.58-.07-1.95,0-3.52,.29-4.71,.86-1.19,.58-2.06,1.88-2.59,3.91-.53,2.04-.84,5.17-.93,9.42h17.38v13.93h-17.38v59.84h-17.91Z"/>
</svg>