<?xml version="1.0" encoding="UTF-8"?>
<svg id="Layer_1" data-name="Layer 1" xmlns="http://www.w3.org/2000/svg" viewBox="0 0 129 129">
  <defs>
    <style>
      .cls-1 {
        fill: #3c3744;
      }

      .cls-2 {
        fill: #818181;
      }
    </style>
  </defs>
  <rect class="cls-2" width="129" height="129" rx="13.01" ry="13.01"/>
  <g>
    <path class="cls-1" d="M18.71,28.86v-12.75h18.55v12.75H18.71Zm.76,84.82V39.71h17.04V113.68H19.47Z"/>
    <path class="cls-1" d="M58.1,113.68V39.71h10.98l2.02,7.32h.63c1.43-.84,3.11-1.77,5.05-2.78,1.93-1.01,4.06-2,6.37-2.97,2.31-.97,4.77-1.75,7.38-2.33,2.61-.59,5.3-.88,8.08-.88,5.05,0,8.88,1.16,11.49,3.47,2.61,2.32,4.4,5.51,5.36,9.59,.97,4.08,1.45,8.69,1.45,13.82v48.72h-17.04v-45.06c0-3.87-.08-6.79-.25-8.77-.17-1.98-.67-3.51-1.51-4.61-.59-.76-1.35-1.3-2.27-1.64-.93-.34-2.02-.5-3.28-.5-2.02,0-4.15,.32-6.37,.95-2.23,.63-4.33,1.39-6.31,2.27-1.98,.88-3.56,1.7-4.73,2.46v54.91h-17.04Z"/>
  </g>
</svg>